<?xml version="1.0" encoding="us-ascii" standalone="no"?><svg xmlns="http://www.w3.org/2000/svg" xmlns:xlink="http://www.w3.org/1999/xlink" contentStyleType="text/css" height="786px" preserveAspectRatio="none" style="width:1311px;height:786px;background:#FFFFFF;" version="1.1" viewBox="0 0 1311 786" width="1311px" zoomAndPan="magnify"><defs/><g><!--class IEnvSensDrv--><g id="elem_IEnvSensDrv"><rect codeLine="2" fill="#F1F1F1" height="241.7031" id="IEnvSensDrv" rx="2.5" ry="2.5" style="stroke:#181818;stroke-width:0.5;" width="426" x="442.5" y="7"/><ellipse cx="611.25" cy="23" fill="#B4A7E5" rx="11" ry="11" style="stroke:#181818;stroke-width:1.0;"/><path d="M612.2031,19.6406 L612.2031,26.2969 L613.9219,26.2969 Q614.5313,26.2969 614.7969,26.5313 Q615.0625,26.7656 615.0625,27.1563 Q615.0625,27.5313 614.7969,27.7656 Q614.5313,28 613.9219,28 L608.7813,28 Q608.1719,28 607.9063,27.7656 Q607.6406,27.5313 607.6406,27.1406 Q607.6406,26.7656 607.9063,26.5313 Q608.1719,26.2969 608.7813,26.2969 L610.5,26.2969 L610.5,19.6406 L608.7813,19.6406 Q608.1719,19.6406 607.9063,19.4063 Q607.6406,19.1719 607.6406,18.7813 Q607.6406,18.4063 607.9063,18.1719 Q608.1719,17.9375 608.7813,17.9375 L613.9219,17.9375 Q614.5313,17.9375 614.7969,18.1719 Q615.0625,18.4063 615.0625,18.7813 Q615.0625,19.1719 614.7969,19.4063 Q614.5313,19.6406 613.9219,19.6406 L612.2031,19.6406 Z " fill="#000000"/><text fill="#000000" font-family="sans-serif" font-size="14" font-style="italic" lengthAdjust="spacing" textLength="80" x="631.75" y="28.7285">IEnvSensDrv</text><line style="stroke:#181818;stroke-width:0.5;" x1="443.5" x2="867.5" y1="39" y2="39"/><line style="stroke:#181818;stroke-width:0.5;" x1="443.5" x2="867.5" y1="47" y2="47"/><ellipse cx="453.5" cy="61.3047" fill="#84BE84" rx="3" ry="3" style="stroke:#038048;stroke-width:1.0;"/><text fill="#000000" font-family="sans-serif" font-size="14" font-style="italic" lengthAdjust="spacing" textLength="174" x="462.5" y="65.5332">virtual return_code init() = 0</text><ellipse cx="453.5" cy="78.9141" fill="#84BE84" rx="3" ry="3" style="stroke:#038048;stroke-width:1.0;"/><text fill="#000000" font-family="sans-serif" font-size="14" font-style="italic" lengthAdjust="spacing" textLength="350" x="462.5" y="83.1426">virtual return_code startContinuousMeasurements() = 0</text><ellipse cx="453.5" cy="96.5234" fill="#84BE84" rx="3" ry="3" style="stroke:#038048;stroke-width:1.0;"/><text fill="#000000" font-family="sans-serif" font-size="14" font-style="italic" lengthAdjust="spacing" textLength="310" x="462.5" y="100.752">virtual return_code startSingleMeasurement() = 0</text><ellipse cx="453.5" cy="114.1328" fill="#84BE84" rx="3" ry="3" style="stroke:#038048;stroke-width:1.0;"/><text fill="#000000" font-family="sans-serif" font-size="14" font-style="italic" lengthAdjust="spacing" textLength="250" x="462.5" y="118.3613">virtual return_code stopMeasuring() = 0</text><ellipse cx="453.5" cy="131.7422" fill="#84BE84" rx="3" ry="3" style="stroke:#038048;stroke-width:1.0;"/><text fill="#000000" font-family="sans-serif" font-size="14" font-style="italic" lengthAdjust="spacing" textLength="400" x="462.5" y="135.9707">virtual return_code readTemperature(int32_t &amp;temperature) = 0</text><ellipse cx="453.5" cy="149.3516" fill="#84BE84" rx="3" ry="3" style="stroke:#038048;stroke-width:1.0;"/><text fill="#000000" font-family="sans-serif" font-size="14" font-style="italic" lengthAdjust="spacing" textLength="355" x="462.5" y="153.5801">virtual return_code readHumidity(uint32_t &amp;humidity) = 0</text><ellipse cx="453.5" cy="166.9609" fill="#84BE84" rx="3" ry="3" style="stroke:#038048;stroke-width:1.0;"/><text fill="#000000" font-family="sans-serif" font-size="14" font-style="italic" lengthAdjust="spacing" textLength="362" x="462.5" y="171.1895">virtual return_code readPressure(uint32_t &amp;pressure) = 0</text><ellipse cx="453.5" cy="184.5703" fill="#84BE84" rx="3" ry="3" style="stroke:#038048;stroke-width:1.0;"/><text fill="#000000" font-family="sans-serif" font-size="14" font-style="italic" lengthAdjust="spacing" textLength="296" x="462.5" y="188.7988">virtual return_code getMeasurementState() = 0</text><ellipse cx="453.5" cy="202.1797" fill="#84BE84" rx="3" ry="3" style="stroke:#038048;stroke-width:1.0;"/><text fill="#000000" font-family="sans-serif" font-size="14" font-style="italic" lengthAdjust="spacing" textLength="154" x="462.5" y="206.4082">virtual void process() = 0</text><text fill="#000000" font-family="sans-serif" font-size="14" lengthAdjust="spacing" textLength="4" x="462.5" y="224.0176">&#160;</text><ellipse cx="453.5" cy="237.3984" fill="#84BE84" rx="3" ry="3" style="stroke:#038048;stroke-width:1.0;"/><text fill="#000000" font-family="sans-serif" font-size="14" font-style="italic" lengthAdjust="spacing" textLength="153" x="462.5" y="241.627">virtual ~IEnvSensDrv() {}</text></g><!--class EnvSensBME280Drv--><g id="elem_EnvSensBME280Drv"><rect codeLine="17" fill="#F1F1F1" height="470.625" id="EnvSensBME280Drv" rx="2.5" ry="2.5" style="stroke:#181818;stroke-width:0.5;" width="631" x="7" y="309"/><ellipse cx="252.75" cy="325" fill="#ADD1B2" rx="11" ry="11" style="stroke:#181818;stroke-width:1.0;"/><path d="M255.5156,320.875 Q255.6719,320.6563 255.8594,320.5469 Q256.0469,320.4375 256.2656,320.4375 Q256.6406,320.4375 256.875,320.7031 Q257.1094,320.9531 257.1094,321.5625 L257.1094,323.0156 Q257.1094,323.625 256.875,323.8906 Q256.6406,324.1563 256.2656,324.1563 Q255.9219,324.1563 255.7188,323.9531 Q255.5156,323.7656 255.4063,323.25 Q255.3594,322.8906 255.1719,322.7031 Q254.8438,322.3281 254.2344,322.1094 Q253.625,321.8906 253,321.8906 Q252.2344,321.8906 251.5938,322.2188 Q250.9688,322.5469 250.4688,323.2969 Q249.9844,324.0469 249.9844,325.0781 L249.9844,326.1719 Q249.9844,327.4063 250.875,328.2344 Q251.7656,329.0469 253.3594,329.0469 Q254.2969,329.0469 254.9531,328.7969 Q255.3438,328.6406 255.7656,328.2031 Q256.0313,327.9375 256.1719,327.8594 Q256.3281,327.7813 256.5313,327.7813 Q256.8594,327.7813 257.1094,328.0469 Q257.375,328.2969 257.375,328.6406 Q257.375,328.9844 257.0313,329.3906 Q256.5313,329.9688 255.7344,330.2969 Q254.6563,330.75 253.3594,330.75 Q251.8438,330.75 250.6406,330.125 Q249.6563,329.625 248.9688,328.5625 Q248.2813,327.4844 248.2813,326.2031 L248.2813,325.0469 Q248.2813,323.7188 248.8906,322.5781 Q249.5156,321.4219 250.6094,320.8125 Q251.7031,320.1875 252.9375,320.1875 Q253.6719,320.1875 254.3125,320.3594 Q254.9688,320.5156 255.5156,320.875 Z " fill="#000000"/><text fill="#000000" font-family="sans-serif" font-size="14" lengthAdjust="spacing" textLength="131" x="273.25" y="330.7285">EnvSensBME280Drv</text><line style="stroke:#181818;stroke-width:0.5;" x1="8" x2="637" y1="341" y2="341"/><rect fill="none" height="6" style="stroke:#C82930;stroke-width:1.0;" width="6" x="15" y="352.3047"/><text fill="#000000" font-family="sans-serif" font-size="14" lengthAdjust="spacing" textLength="260" x="27" y="359.5332">i2c_master_bus_handle_t m_bus_handle</text><rect fill="none" height="6" style="stroke:#C82930;stroke-width:1.0;" width="6" x="15" y="369.9141"/><text fill="#000000" font-family="sans-serif" font-size="14" lengthAdjust="spacing" textLength="260" x="27" y="377.1426">i2c_master_dev_handle_t m_dev_handle</text><text fill="#000000" font-family="sans-serif" font-size="14" lengthAdjust="spacing" textLength="4" x="27" y="394.752">&#160;</text><rect fill="none" height="6" style="stroke:#C82930;stroke-width:1.0;" width="6" x="15" y="405.1328"/><text fill="#000000" font-family="sans-serif" font-size="14" lengthAdjust="spacing" textLength="229" x="27" y="412.3613">bme280_config_t m_bme280_config</text><rect fill="none" height="6" style="stroke:#C82930;stroke-width:1.0;" width="6" x="15" y="422.7422"/><text fill="#000000" font-family="sans-serif" font-size="14" lengthAdjust="spacing" textLength="212" x="27" y="429.9707">bme280_calib_data m_calib_data</text><text fill="#000000" font-family="sans-serif" font-size="14" lengthAdjust="spacing" textLength="4" x="27" y="447.5801">&#160;</text><rect fill="none" height="6" style="stroke:#C82930;stroke-width:1.0;" width="6" x="15" y="457.9609"/><text fill="#000000" font-family="sans-serif" font-size="14" lengthAdjust="spacing" textLength="131" x="27" y="465.1895">return_code m_state</text><text fill="#000000" font-family="sans-serif" font-size="14" lengthAdjust="spacing" textLength="4" x="27" y="482.7988">&#160;</text><rect fill="none" height="6" style="stroke:#C82930;stroke-width:1.0;" width="6" x="15" y="493.1797"/><text fill="#000000" font-family="sans-serif" font-size="14" lengthAdjust="spacing" textLength="143" x="27" y="500.4082">int32_t m_temperature</text><rect fill="none" height="6" style="stroke:#C82930;stroke-width:1.0;" width="6" x="15" y="510.7891"/><text fill="#000000" font-family="sans-serif" font-size="14" lengthAdjust="spacing" textLength="130" x="27" y="518.0176">uint32_t m_pressure</text><rect fill="none" height="6" style="stroke:#C82930;stroke-width:1.0;" width="6" x="15" y="528.3984"/><text fill="#000000" font-family="sans-serif" font-size="14" lengthAdjust="spacing" textLength="126" x="27" y="535.627">uint32_t m_humidity</text><line style="stroke:#181818;stroke-width:0.5;" x1="8" x2="637" y1="542.7031" y2="542.7031"/><ellipse cx="18" cy="557.0078" fill="#84BE84" rx="3" ry="3" style="stroke:#038048;stroke-width:1.0;"/><text fill="#000000" font-family="sans-serif" font-size="14" lengthAdjust="spacing" textLength="605" x="27" y="561.2363">EnvSensBME280Drv(bme280_config_t *bme280_config, i2c_master_bus_handle_t bus_handle)</text><text fill="#000000" font-family="sans-serif" font-size="14" lengthAdjust="spacing" textLength="4" x="27" y="578.8457">&#160;</text><ellipse cx="18" cy="592.2266" fill="#84BE84" rx="3" ry="3" style="stroke:#038048;stroke-width:1.0;"/><text fill="#000000" font-family="sans-serif" font-size="14" lengthAdjust="spacing" textLength="165" x="27" y="596.4551">return_code init() override</text><ellipse cx="18" cy="609.8359" fill="#84BE84" rx="3" ry="3" style="stroke:#038048;stroke-width:1.0;"/><text fill="#000000" font-family="sans-serif" font-size="14" lengthAdjust="spacing" textLength="340" x="27" y="614.0645">return_code startContinuousMeasurements() override</text><ellipse cx="18" cy="627.4453" fill="#84BE84" rx="3" ry="3" style="stroke:#038048;stroke-width:1.0;"/><text fill="#000000" font-family="sans-serif" font-size="14" lengthAdjust="spacing" textLength="300" x="27" y="631.6738">return_code startSingleMeasurement() override</text><ellipse cx="18" cy="645.0547" fill="#84BE84" rx="3" ry="3" style="stroke:#038048;stroke-width:1.0;"/><text fill="#000000" font-family="sans-serif" font-size="14" lengthAdjust="spacing" textLength="240" x="27" y="649.2832">return_code stopMeasuring() override</text><ellipse cx="18" cy="662.6641" fill="#84BE84" rx="3" ry="3" style="stroke:#038048;stroke-width:1.0;"/><text fill="#000000" font-family="sans-serif" font-size="14" lengthAdjust="spacing" textLength="391" x="27" y="666.8926">return_code readTemperature(int32_t &amp;temperature) override</text><ellipse cx="18" cy="680.2734" fill="#84BE84" rx="3" ry="3" style="stroke:#038048;stroke-width:1.0;"/><text fill="#000000" font-family="sans-serif" font-size="14" lengthAdjust="spacing" textLength="345" x="27" y="684.502">return_code readHumidity(uint32_t &amp;humidity) override</text><ellipse cx="18" cy="697.8828" fill="#84BE84" rx="3" ry="3" style="stroke:#038048;stroke-width:1.0;"/><text fill="#000000" font-family="sans-serif" font-size="14" lengthAdjust="spacing" textLength="353" x="27" y="702.1113">return_code readPressure(uint32_t &amp;pressure) override</text><ellipse cx="18" cy="715.4922" fill="#84BE84" rx="3" ry="3" style="stroke:#038048;stroke-width:1.0;"/><text fill="#000000" font-family="sans-serif" font-size="14" lengthAdjust="spacing" textLength="286" x="27" y="719.7207">return_code getMeasurementState() override</text><ellipse cx="18" cy="733.1016" fill="#84BE84" rx="3" ry="3" style="stroke:#038048;stroke-width:1.0;"/><text fill="#000000" font-family="sans-serif" font-size="14" lengthAdjust="spacing" textLength="146" x="27" y="737.3301">void process() override</text><text fill="#000000" font-family="sans-serif" font-size="14" lengthAdjust="spacing" textLength="4" x="27" y="754.9395">&#160;</text><ellipse cx="18" cy="768.3203" fill="#84BE84" rx="3" ry="3" style="stroke:#038048;stroke-width:1.0;"/><text fill="#000000" font-family="sans-serif" font-size="14" lengthAdjust="spacing" textLength="149" x="27" y="772.5488">~EnvSensBME280Drv()</text></g><!--class EnvSensBMP280Drv--><g id="elem_EnvSensBMP280Drv"><rect codeLine="46" fill="#F1F1F1" height="453.0156" id="EnvSensBMP280Drv" rx="2.5" ry="2.5" style="stroke:#181818;stroke-width:0.5;" width="631" x="673" y="318"/><ellipse cx="918.75" cy="334" fill="#ADD1B2" rx="11" ry="11" style="stroke:#181818;stroke-width:1.0;"/><path d="M921.5156,329.875 Q921.6719,329.6563 921.8594,329.5469 Q922.0469,329.4375 922.2656,329.4375 Q922.6406,329.4375 922.875,329.7031 Q923.1094,329.9531 923.1094,330.5625 L923.1094,332.0156 Q923.1094,332.625 922.875,332.8906 Q922.6406,333.1563 922.2656,333.1563 Q921.9219,333.1563 921.7188,332.9531 Q921.5156,332.7656 921.4063,332.25 Q921.3594,331.8906 921.1719,331.7031 Q920.8438,331.3281 920.2344,331.1094 Q919.625,330.8906 919,330.8906 Q918.2344,330.8906 917.5938,331.2188 Q916.9688,331.5469 916.4688,332.2969 Q915.9844,333.0469 915.9844,334.0781 L915.9844,335.1719 Q915.9844,336.4063 916.875,337.2344 Q917.7656,338.0469 919.3594,338.0469 Q920.2969,338.0469 920.9531,337.7969 Q921.3438,337.6406 921.7656,337.2031 Q922.0313,336.9375 922.1719,336.8594 Q922.3281,336.7813 922.5313,336.7813 Q922.8594,336.7813 923.1094,337.0469 Q923.375,337.2969 923.375,337.6406 Q923.375,337.9844 923.0313,338.3906 Q922.5313,338.9688 921.7344,339.2969 Q920.6563,339.75 919.3594,339.75 Q917.8438,339.75 916.6406,339.125 Q915.6563,338.625 914.9688,337.5625 Q914.2813,336.4844 914.2813,335.2031 L914.2813,334.0469 Q914.2813,332.7188 914.8906,331.5781 Q915.5156,330.4219 916.6094,329.8125 Q917.7031,329.1875 918.9375,329.1875 Q919.6719,329.1875 920.3125,329.3594 Q920.9688,329.5156 921.5156,329.875 Z " fill="#000000"/><text fill="#000000" font-family="sans-serif" font-size="14" lengthAdjust="spacing" textLength="131" x="939.25" y="339.7285">EnvSensBMP280Drv</text><line style="stroke:#181818;stroke-width:0.5;" x1="674" x2="1303" y1="350" y2="350"/><rect fill="none" height="6" style="stroke:#C82930;stroke-width:1.0;" width="6" x="681" y="361.3047"/><text fill="#000000" font-family="sans-serif" font-size="14" lengthAdjust="spacing" textLength="260" x="693" y="368.5332">i2c_master_bus_handle_t m_bus_handle</text><rect fill="none" height="6" style="stroke:#C82930;stroke-width:1.0;" width="6" x="681" y="378.9141"/><text fill="#000000" font-family="sans-serif" font-size="14" lengthAdjust="spacing" textLength="260" x="693" y="386.1426">i2c_master_dev_handle_t m_dev_handle</text><text fill="#000000" font-family="sans-serif" font-size="14" lengthAdjust="spacing" textLength="4" x="693" y="403.752">&#160;</text><rect fill="none" height="6" style="stroke:#C82930;stroke-width:1.0;" width="6" x="681" y="414.1328"/><text fill="#000000" font-family="sans-serif" font-size="14" lengthAdjust="spacing" textLength="229" x="693" y="421.3613">bmp280_config_t m_bmp280_config</text><rect fill="none" height="6" style="stroke:#C82930;stroke-width:1.0;" width="6" x="681" y="431.7422"/><text fill="#000000" font-family="sans-serif" font-size="14" lengthAdjust="spacing" textLength="212" x="693" y="438.9707">bmp280_calib_data m_calib_data</text><text fill="#000000" font-family="sans-serif" font-size="14" lengthAdjust="spacing" textLength="4" x="693" y="456.5801">&#160;</text><rect fill="none" height="6" style="stroke:#C82930;stroke-width:1.0;" width="6" x="681" y="466.9609"/><text fill="#000000" font-family="sans-serif" font-size="14" lengthAdjust="spacing" textLength="131" x="693" y="474.1895">return_code m_state</text><text fill="#000000" font-family="sans-serif" font-size="14" lengthAdjust="spacing" textLength="4" x="693" y="491.7988">&#160;</text><rect fill="none" height="6" style="stroke:#C82930;stroke-width:1.0;" width="6" x="681" y="502.1797"/><text fill="#000000" font-family="sans-serif" font-size="14" lengthAdjust="spacing" textLength="143" x="693" y="509.4082">int32_t m_temperature</text><rect fill="none" height="6" style="stroke:#C82930;stroke-width:1.0;" width="6" x="681" y="519.7891"/><text fill="#000000" font-family="sans-serif" font-size="14" lengthAdjust="spacing" textLength="130" x="693" y="527.0176">uint32_t m_pressure</text><line style="stroke:#181818;stroke-width:0.5;" x1="674" x2="1303" y1="534.0938" y2="534.0938"/><ellipse cx="684" cy="548.3984" fill="#84BE84" rx="3" ry="3" style="stroke:#038048;stroke-width:1.0;"/><text fill="#000000" font-family="sans-serif" font-size="14" lengthAdjust="spacing" textLength="605" x="693" y="552.627">EnvSensBMP280Drv(bmp280_config_t *bmp280_config, i2c_master_bus_handle_t bus_handle)</text><text fill="#000000" font-family="sans-serif" font-size="14" lengthAdjust="spacing" textLength="4" x="693" y="570.2363">&#160;</text><ellipse cx="684" cy="583.6172" fill="#84BE84" rx="3" ry="3" style="stroke:#038048;stroke-width:1.0;"/><text fill="#000000" font-family="sans-serif" font-size="14" lengthAdjust="spacing" textLength="165" x="693" y="587.8457">return_code init() override</text><ellipse cx="684" cy="601.2266" fill="#84BE84" rx="3" ry="3" style="stroke:#038048;stroke-width:1.0;"/><text fill="#000000" font-family="sans-serif" font-size="14" lengthAdjust="spacing" textLength="340" x="693" y="605.4551">return_code startContinuousMeasurements() override</text><ellipse cx="684" cy="618.8359" fill="#84BE84" rx="3" ry="3" style="stroke:#038048;stroke-width:1.0;"/><text fill="#000000" font-family="sans-serif" font-size="14" lengthAdjust="spacing" textLength="300" x="693" y="623.0645">return_code startSingleMeasurement() override</text><ellipse cx="684" cy="636.4453" fill="#84BE84" rx="3" ry="3" style="stroke:#038048;stroke-width:1.0;"/><text fill="#000000" font-family="sans-serif" font-size="14" lengthAdjust="spacing" textLength="240" x="693" y="640.6738">return_code stopMeasuring() override</text><ellipse cx="684" cy="654.0547" fill="#84BE84" rx="3" ry="3" style="stroke:#038048;stroke-width:1.0;"/><text fill="#000000" font-family="sans-serif" font-size="14" lengthAdjust="spacing" textLength="391" x="693" y="658.2832">return_code readTemperature(int32_t &amp;temperature) override</text><ellipse cx="684" cy="671.6641" fill="#84BE84" rx="3" ry="3" style="stroke:#038048;stroke-width:1.0;"/><text fill="#000000" font-family="sans-serif" font-size="14" lengthAdjust="spacing" textLength="345" x="693" y="675.8926">return_code readHumidity(uint32_t &amp;humidity) override</text><ellipse cx="684" cy="689.2734" fill="#84BE84" rx="3" ry="3" style="stroke:#038048;stroke-width:1.0;"/><text fill="#000000" font-family="sans-serif" font-size="14" lengthAdjust="spacing" textLength="353" x="693" y="693.502">return_code readPressure(uint32_t &amp;pressure) override</text><ellipse cx="684" cy="706.8828" fill="#84BE84" rx="3" ry="3" style="stroke:#038048;stroke-width:1.0;"/><text fill="#000000" font-family="sans-serif" font-size="14" lengthAdjust="spacing" textLength="286" x="693" y="711.1113">return_code getMeasurementState() override</text><ellipse cx="684" cy="724.4922" fill="#84BE84" rx="3" ry="3" style="stroke:#038048;stroke-width:1.0;"/><text fill="#000000" font-family="sans-serif" font-size="14" lengthAdjust="spacing" textLength="146" x="693" y="728.7207">void process() override</text><text fill="#000000" font-family="sans-serif" font-size="14" lengthAdjust="spacing" textLength="4" x="693" y="746.3301">&#160;</text><ellipse cx="684" cy="759.7109" fill="#84BE84" rx="3" ry="3" style="stroke:#038048;stroke-width:1.0;"/><text fill="#000000" font-family="sans-serif" font-size="14" lengthAdjust="spacing" textLength="149" x="693" y="763.9395">~EnvSensBMP280Drv()</text></g><!--reverse link IEnvSensDrv to EnvSensBME280Drv--><g id="link_IEnvSensDrv_EnvSensBME280Drv"><path d="M547.684,263.2004 C532.414,282.2004 527.46,288.37 510.94,308.94 " fill="none" id="IEnvSensDrv-backto-EnvSensBME280Drv" style="stroke:#181818;stroke-width:1.0;stroke-dasharray:7.0,7.0;"/><polygon fill="none" points="558.96,249.17,543.0072,259.4417,552.3608,266.9591,558.96,249.17" style="stroke:#181818;stroke-width:1.0;"/></g><!--reverse link IEnvSensDrv to EnvSensBMP280Drv--><g id="link_IEnvSensDrv_EnvSensBMP280Drv"><path d="M763.3159,263.2004 C780.7959,284.9504 788.25,294.24 807.24,317.88 " fill="none" id="IEnvSensDrv-backto-EnvSensBMP280Drv" style="stroke:#181818;stroke-width:1.0;stroke-dasharray:7.0,7.0;"/><polygon fill="none" points="752.04,249.17,758.6391,266.9591,767.9928,259.4418,752.04,249.17" style="stroke:#181818;stroke-width:1.0;"/></g><!--SRC=[xPC_JyCm4CNtV0fFA0KgLMLXOG4gmL0fKjaZ9xcsbcB7ii-HKDL-TbmbRPo_90iCaCrtxvwJb_inWQ2sD0RolXBv1eH-LRbty8XzxWuqqgXeZCUSAJGq9GhGA176MGA42OR-Z3oHnHYrHghm9HF8XCcCNWFLHW47WNgYoOQ9NGgEmPJvJ1Q3rcFyc0AQV02NeAWjWiy4FYn393TO5IUPlHdE4eQVlhbQxSlI99z0WJwduFZ8iZJQPmVePBb1YZ2SJ9wnX4YLnVQYKjadFJbBPQM7etVql3YbMfEoyRnUBHyNjaqObscn3nshE6VBEEHKssKD8wF3FHL92lPxkNDiAHF8NMLrB5vu7d6mbziOn9Rj2ZEtKXVHb4LXGf5QMNKedTn0UQZF8PQTou_XeRCiHSjKlSjVQpKkQr56t4pDRtx2RQrmJ_fogmwpqhe3xIm7fLW2RS4mpT_CTG4yD59djbyv3jFX-K4oXqS7OUmVxUQlhcyWTsqMtLDhAsOTd0M_oPbiSIRRdCaVvAo1Kt35IJPnalyu_LMS0WUdBm00]--></g></svg>