<?xml version="1.0" encoding="us-ascii" standalone="no"?><svg xmlns="http://www.w3.org/2000/svg" xmlns:xlink="http://www.w3.org/1999/xlink" contentStyleType="text/css" height="884px" preserveAspectRatio="none" style="width:1311px;height:884px;background:#FFFFFF;" version="1.1" viewBox="0 0 1311 884" width="1311px" zoomAndPan="magnify"><defs/><g><!--class IEnvSensDrv--><g id="elem_IEnvSensDrv"><rect codeLine="2" fill="#F1F1F1" height="286.5313" id="IEnvSensDrv" rx="2.5" ry="2.5" style="stroke:#181818;stroke-width:0.5;" width="361" x="475" y="7"/><ellipse cx="611.25" cy="23" fill="#B4A7E5" rx="11" ry="11" style="stroke:#181818;stroke-width:1.0;"/><path d="M612.2031,19.6406 L612.2031,26.2969 L613.9219,26.2969 Q614.5313,26.2969 614.7969,26.5313 Q615.0625,26.7656 615.0625,27.1563 Q615.0625,27.5313 614.7969,27.7656 Q614.5313,28 613.9219,28 L608.7813,28 Q608.1719,28 607.9063,27.7656 Q607.6406,27.5313 607.6406,27.1406 Q607.6406,26.7656 607.9063,26.5313 Q608.1719,26.2969 608.7813,26.2969 L610.5,26.2969 L610.5,19.6406 L608.7813,19.6406 Q608.1719,19.6406 607.9063,19.4063 Q607.6406,19.1719 607.6406,18.7813 Q607.6406,18.4063 607.9063,18.1719 Q608.1719,17.9375 608.7813,17.9375 L613.9219,17.9375 Q614.5313,17.9375 614.7969,18.1719 Q615.0625,18.4063 615.0625,18.7813 Q615.0625,19.1719 614.7969,19.4063 Q614.5313,19.6406 613.9219,19.6406 L612.2031,19.6406 Z " fill="#000000"/><text fill="#000000" font-family="sans-serif" font-size="14" font-style="italic" lengthAdjust="spacing" textLength="80" x="631.75" y="28.7285">IEnvSensDrv</text><line style="stroke:#181818;stroke-width:0.5;" x1="476" x2="835" y1="39" y2="39"/><ellipse cx="486" cy="53.3047" fill="#84BE84" rx="3" ry="3" style="stroke:#038048;stroke-width:1.0;"/><text fill="#000000" font-family="sans-serif" font-size="14" font-style="italic" lengthAdjust="spacing" textLength="109" x="495" y="57.5332">return_code init()</text><text fill="#000000" font-family="sans-serif" font-size="14" lengthAdjust="spacing" textLength="4" x="495" y="75.1426">&#160;</text><ellipse cx="486" cy="88.5234" fill="#84BE84" rx="3" ry="3" style="stroke:#038048;stroke-width:1.0;"/><text fill="#000000" font-family="sans-serif" font-size="14" font-style="italic" lengthAdjust="spacing" textLength="285" x="495" y="92.752">return_code startContinuousMeasurements()</text><ellipse cx="486" cy="106.1328" fill="#84BE84" rx="3" ry="3" style="stroke:#038048;stroke-width:1.0;"/><text fill="#000000" font-family="sans-serif" font-size="14" font-style="italic" lengthAdjust="spacing" textLength="245" x="495" y="110.3613">return_code startSingleMeasurement()</text><ellipse cx="486" cy="123.7422" fill="#84BE84" rx="3" ry="3" style="stroke:#038048;stroke-width:1.0;"/><text fill="#000000" font-family="sans-serif" font-size="14" font-style="italic" lengthAdjust="spacing" textLength="185" x="495" y="127.9707">return_code stopMeasuring()</text><text fill="#000000" font-family="sans-serif" font-size="14" lengthAdjust="spacing" textLength="4" x="495" y="145.5801">&#160;</text><ellipse cx="486" cy="158.9609" fill="#84BE84" rx="3" ry="3" style="stroke:#038048;stroke-width:1.0;"/><text fill="#000000" font-family="sans-serif" font-size="14" font-style="italic" lengthAdjust="spacing" textLength="335" x="495" y="163.1895">return_code readTemperature(int32_t &amp;temperature)</text><ellipse cx="486" cy="176.5703" fill="#84BE84" rx="3" ry="3" style="stroke:#038048;stroke-width:1.0;"/><text fill="#000000" font-family="sans-serif" font-size="14" font-style="italic" lengthAdjust="spacing" textLength="290" x="495" y="180.7988">return_code readHumidity(uint32_t &amp;humidity)</text><ellipse cx="486" cy="194.1797" fill="#84BE84" rx="3" ry="3" style="stroke:#038048;stroke-width:1.0;"/><text fill="#000000" font-family="sans-serif" font-size="14" font-style="italic" lengthAdjust="spacing" textLength="297" x="495" y="198.4082">return_code readPressure(uint32_t &amp;pressure)</text><text fill="#000000" font-family="sans-serif" font-size="14" lengthAdjust="spacing" textLength="4" x="495" y="216.0176">&#160;</text><ellipse cx="486" cy="229.3984" fill="#84BE84" rx="3" ry="3" style="stroke:#038048;stroke-width:1.0;"/><text fill="#000000" font-family="sans-serif" font-size="14" font-style="italic" lengthAdjust="spacing" textLength="231" x="495" y="233.627">return_code getMeasurementState()</text><ellipse cx="486" cy="247.0078" fill="#84BE84" rx="3" ry="3" style="stroke:#038048;stroke-width:1.0;"/><text fill="#000000" font-family="sans-serif" font-size="14" font-style="italic" lengthAdjust="spacing" textLength="89" x="495" y="251.2363">void process()</text><text fill="#000000" font-family="sans-serif" font-size="14" lengthAdjust="spacing" textLength="4" x="495" y="268.8457">&#160;</text><ellipse cx="486" cy="282.2266" fill="#84BE84" rx="3" ry="3" style="stroke:#038048;stroke-width:1.0;"/><text fill="#000000" font-family="sans-serif" font-size="14" font-style="italic" lengthAdjust="spacing" textLength="98" x="495" y="286.4551">~IEnvSensDrv()</text></g><!--class EnvSensBME280Drv--><g id="elem_EnvSensBME280Drv"><rect codeLine="20" fill="#F1F1F1" height="523.4531" id="EnvSensBME280Drv" rx="2.5" ry="2.5" style="stroke:#181818;stroke-width:0.5;" width="631" x="7" y="354"/><ellipse cx="252.75" cy="370" fill="#ADD1B2" rx="11" ry="11" style="stroke:#181818;stroke-width:1.0;"/><path d="M255.5156,365.875 Q255.6719,365.6563 255.8594,365.5469 Q256.0469,365.4375 256.2656,365.4375 Q256.6406,365.4375 256.875,365.7031 Q257.1094,365.9531 257.1094,366.5625 L257.1094,368.0156 Q257.1094,368.625 256.875,368.8906 Q256.6406,369.1563 256.2656,369.1563 Q255.9219,369.1563 255.7188,368.9531 Q255.5156,368.7656 255.4063,368.25 Q255.3594,367.8906 255.1719,367.7031 Q254.8438,367.3281 254.2344,367.1094 Q253.625,366.8906 253,366.8906 Q252.2344,366.8906 251.5938,367.2188 Q250.9688,367.5469 250.4688,368.2969 Q249.9844,369.0469 249.9844,370.0781 L249.9844,371.1719 Q249.9844,372.4063 250.875,373.2344 Q251.7656,374.0469 253.3594,374.0469 Q254.2969,374.0469 254.9531,373.7969 Q255.3438,373.6406 255.7656,373.2031 Q256.0313,372.9375 256.1719,372.8594 Q256.3281,372.7813 256.5313,372.7813 Q256.8594,372.7813 257.1094,373.0469 Q257.375,373.2969 257.375,373.6406 Q257.375,373.9844 257.0313,374.3906 Q256.5313,374.9688 255.7344,375.2969 Q254.6563,375.75 253.3594,375.75 Q251.8438,375.75 250.6406,375.125 Q249.6563,374.625 248.9688,373.5625 Q248.2813,372.4844 248.2813,371.2031 L248.2813,370.0469 Q248.2813,368.7188 248.8906,367.5781 Q249.5156,366.4219 250.6094,365.8125 Q251.7031,365.1875 252.9375,365.1875 Q253.6719,365.1875 254.3125,365.3594 Q254.9688,365.5156 255.5156,365.875 Z " fill="#000000"/><text fill="#000000" font-family="sans-serif" font-size="14" lengthAdjust="spacing" textLength="131" x="273.25" y="375.7285">EnvSensBME280Drv</text><line style="stroke:#181818;stroke-width:0.5;" x1="8" x2="637" y1="386" y2="386"/><rect fill="none" height="6" style="stroke:#C82930;stroke-width:1.0;" width="6" x="15" y="397.3047"/><text fill="#000000" font-family="sans-serif" font-size="14" lengthAdjust="spacing" textLength="260" x="27" y="404.5332">i2c_master_bus_handle_t m_bus_handle</text><rect fill="none" height="6" style="stroke:#C82930;stroke-width:1.0;" width="6" x="15" y="414.9141"/><text fill="#000000" font-family="sans-serif" font-size="14" lengthAdjust="spacing" textLength="260" x="27" y="422.1426">i2c_master_dev_handle_t m_dev_handle</text><text fill="#000000" font-family="sans-serif" font-size="14" lengthAdjust="spacing" textLength="4" x="27" y="439.752">&#160;</text><rect fill="none" height="6" style="stroke:#C82930;stroke-width:1.0;" width="6" x="15" y="450.1328"/><text fill="#000000" font-family="sans-serif" font-size="14" lengthAdjust="spacing" textLength="229" x="27" y="457.3613">bme280_config_t m_bme280_config</text><rect fill="none" height="6" style="stroke:#C82930;stroke-width:1.0;" width="6" x="15" y="467.7422"/><text fill="#000000" font-family="sans-serif" font-size="14" lengthAdjust="spacing" textLength="212" x="27" y="474.9707">bme280_calib_data m_calib_data</text><text fill="#000000" font-family="sans-serif" font-size="14" lengthAdjust="spacing" textLength="4" x="27" y="492.5801">&#160;</text><rect fill="none" height="6" style="stroke:#C82930;stroke-width:1.0;" width="6" x="15" y="502.9609"/><text fill="#000000" font-family="sans-serif" font-size="14" lengthAdjust="spacing" textLength="131" x="27" y="510.1895">return_code m_state</text><text fill="#000000" font-family="sans-serif" font-size="14" lengthAdjust="spacing" textLength="4" x="27" y="527.7988">&#160;</text><rect fill="none" height="6" style="stroke:#C82930;stroke-width:1.0;" width="6" x="15" y="538.1797"/><text fill="#000000" font-family="sans-serif" font-size="14" lengthAdjust="spacing" textLength="143" x="27" y="545.4082">int32_t m_temperature</text><rect fill="none" height="6" style="stroke:#C82930;stroke-width:1.0;" width="6" x="15" y="555.7891"/><text fill="#000000" font-family="sans-serif" font-size="14" lengthAdjust="spacing" textLength="130" x="27" y="563.0176">uint32_t m_pressure</text><rect fill="none" height="6" style="stroke:#C82930;stroke-width:1.0;" width="6" x="15" y="573.3984"/><text fill="#000000" font-family="sans-serif" font-size="14" lengthAdjust="spacing" textLength="126" x="27" y="580.627">uint32_t m_humidity</text><line style="stroke:#181818;stroke-width:0.5;" x1="8" x2="637" y1="587.7031" y2="587.7031"/><ellipse cx="18" cy="602.0078" fill="#84BE84" rx="3" ry="3" style="stroke:#038048;stroke-width:1.0;"/><text fill="#000000" font-family="sans-serif" font-size="14" lengthAdjust="spacing" textLength="605" x="27" y="606.2363">EnvSensBME280Drv(bme280_config_t *bme280_config, i2c_master_bus_handle_t bus_handle)</text><text fill="#000000" font-family="sans-serif" font-size="14" lengthAdjust="spacing" textLength="4" x="27" y="623.8457">&#160;</text><ellipse cx="18" cy="637.2266" fill="#84BE84" rx="3" ry="3" style="stroke:#038048;stroke-width:1.0;"/><text fill="#000000" font-family="sans-serif" font-size="14" lengthAdjust="spacing" textLength="109" x="27" y="641.4551">return_code init()</text><text fill="#000000" font-family="sans-serif" font-size="14" lengthAdjust="spacing" textLength="4" x="27" y="659.0645">&#160;</text><ellipse cx="18" cy="672.4453" fill="#84BE84" rx="3" ry="3" style="stroke:#038048;stroke-width:1.0;"/><text fill="#000000" font-family="sans-serif" font-size="14" lengthAdjust="spacing" textLength="284" x="27" y="676.6738">return_code startContinuousMeasurements()</text><ellipse cx="18" cy="690.0547" fill="#84BE84" rx="3" ry="3" style="stroke:#038048;stroke-width:1.0;"/><text fill="#000000" font-family="sans-serif" font-size="14" lengthAdjust="spacing" textLength="244" x="27" y="694.2832">return_code startSingleMeasurement()</text><ellipse cx="18" cy="707.6641" fill="#84BE84" rx="3" ry="3" style="stroke:#038048;stroke-width:1.0;"/><text fill="#000000" font-family="sans-serif" font-size="14" lengthAdjust="spacing" textLength="184" x="27" y="711.8926">return_code stopMeasuring()</text><text fill="#000000" font-family="sans-serif" font-size="14" lengthAdjust="spacing" textLength="4" x="27" y="729.502">&#160;</text><ellipse cx="18" cy="742.8828" fill="#84BE84" rx="3" ry="3" style="stroke:#038048;stroke-width:1.0;"/><text fill="#000000" font-family="sans-serif" font-size="14" lengthAdjust="spacing" textLength="335" x="27" y="747.1113">return_code readTemperature(int32_t &amp;temperature)</text><ellipse cx="18" cy="760.4922" fill="#84BE84" rx="3" ry="3" style="stroke:#038048;stroke-width:1.0;"/><text fill="#000000" font-family="sans-serif" font-size="14" lengthAdjust="spacing" textLength="289" x="27" y="764.7207">return_code readHumidity(uint32_t &amp;humidity)</text><ellipse cx="18" cy="778.1016" fill="#84BE84" rx="3" ry="3" style="stroke:#038048;stroke-width:1.0;"/><text fill="#000000" font-family="sans-serif" font-size="14" lengthAdjust="spacing" textLength="297" x="27" y="782.3301">return_code readPressure(uint32_t &amp;pressure)</text><text fill="#000000" font-family="sans-serif" font-size="14" lengthAdjust="spacing" textLength="4" x="27" y="799.9395">&#160;</text><ellipse cx="18" cy="813.3203" fill="#84BE84" rx="3" ry="3" style="stroke:#038048;stroke-width:1.0;"/><text fill="#000000" font-family="sans-serif" font-size="14" lengthAdjust="spacing" textLength="230" x="27" y="817.5488">return_code getMeasurementState()</text><ellipse cx="18" cy="830.9297" fill="#84BE84" rx="3" ry="3" style="stroke:#038048;stroke-width:1.0;"/><text fill="#000000" font-family="sans-serif" font-size="14" lengthAdjust="spacing" textLength="90" x="27" y="835.1582">void process()</text><text fill="#000000" font-family="sans-serif" font-size="14" lengthAdjust="spacing" textLength="4" x="27" y="852.7676">&#160;</text><ellipse cx="18" cy="866.1484" fill="#84BE84" rx="3" ry="3" style="stroke:#038048;stroke-width:1.0;"/><text fill="#000000" font-family="sans-serif" font-size="14" lengthAdjust="spacing" textLength="149" x="27" y="870.377">~EnvSensBME280Drv()</text></g><!--class EnvSensBMP280Drv--><g id="elem_EnvSensBMP280Drv"><rect codeLine="52" fill="#F1F1F1" height="488.2344" id="EnvSensBMP280Drv" rx="2.5" ry="2.5" style="stroke:#181818;stroke-width:0.5;" width="631" x="673" y="371.5"/><ellipse cx="918.75" cy="387.5" fill="#ADD1B2" rx="11" ry="11" style="stroke:#181818;stroke-width:1.0;"/><path d="M921.5156,383.375 Q921.6719,383.1563 921.8594,383.0469 Q922.0469,382.9375 922.2656,382.9375 Q922.6406,382.9375 922.875,383.2031 Q923.1094,383.4531 923.1094,384.0625 L923.1094,385.5156 Q923.1094,386.125 922.875,386.3906 Q922.6406,386.6563 922.2656,386.6563 Q921.9219,386.6563 921.7188,386.4531 Q921.5156,386.2656 921.4063,385.75 Q921.3594,385.3906 921.1719,385.2031 Q920.8438,384.8281 920.2344,384.6094 Q919.625,384.3906 919,384.3906 Q918.2344,384.3906 917.5938,384.7188 Q916.9688,385.0469 916.4688,385.7969 Q915.9844,386.5469 915.9844,387.5781 L915.9844,388.6719 Q915.9844,389.9063 916.875,390.7344 Q917.7656,391.5469 919.3594,391.5469 Q920.2969,391.5469 920.9531,391.2969 Q921.3438,391.1406 921.7656,390.7031 Q922.0313,390.4375 922.1719,390.3594 Q922.3281,390.2813 922.5313,390.2813 Q922.8594,390.2813 923.1094,390.5469 Q923.375,390.7969 923.375,391.1406 Q923.375,391.4844 923.0313,391.8906 Q922.5313,392.4688 921.7344,392.7969 Q920.6563,393.25 919.3594,393.25 Q917.8438,393.25 916.6406,392.625 Q915.6563,392.125 914.9688,391.0625 Q914.2813,389.9844 914.2813,388.7031 L914.2813,387.5469 Q914.2813,386.2188 914.8906,385.0781 Q915.5156,383.9219 916.6094,383.3125 Q917.7031,382.6875 918.9375,382.6875 Q919.6719,382.6875 920.3125,382.8594 Q920.9688,383.0156 921.5156,383.375 Z " fill="#000000"/><text fill="#000000" font-family="sans-serif" font-size="14" lengthAdjust="spacing" textLength="131" x="939.25" y="393.2285">EnvSensBMP280Drv</text><line style="stroke:#181818;stroke-width:0.5;" x1="674" x2="1303" y1="403.5" y2="403.5"/><rect fill="none" height="6" style="stroke:#C82930;stroke-width:1.0;" width="6" x="681" y="414.8047"/><text fill="#000000" font-family="sans-serif" font-size="14" lengthAdjust="spacing" textLength="260" x="693" y="422.0332">i2c_master_bus_handle_t m_bus_handle</text><rect fill="none" height="6" style="stroke:#C82930;stroke-width:1.0;" width="6" x="681" y="432.4141"/><text fill="#000000" font-family="sans-serif" font-size="14" lengthAdjust="spacing" textLength="260" x="693" y="439.6426">i2c_master_dev_handle_t m_dev_handle</text><text fill="#000000" font-family="sans-serif" font-size="14" lengthAdjust="spacing" textLength="4" x="693" y="457.252">&#160;</text><rect fill="none" height="6" style="stroke:#C82930;stroke-width:1.0;" width="6" x="681" y="467.6328"/><text fill="#000000" font-family="sans-serif" font-size="14" lengthAdjust="spacing" textLength="229" x="693" y="474.8613">bmp280_config_t m_bmp280_config</text><rect fill="none" height="6" style="stroke:#C82930;stroke-width:1.0;" width="6" x="681" y="485.2422"/><text fill="#000000" font-family="sans-serif" font-size="14" lengthAdjust="spacing" textLength="212" x="693" y="492.4707">bmp280_calib_data m_calib_data</text><text fill="#000000" font-family="sans-serif" font-size="14" lengthAdjust="spacing" textLength="4" x="693" y="510.0801">&#160;</text><rect fill="none" height="6" style="stroke:#C82930;stroke-width:1.0;" width="6" x="681" y="520.4609"/><text fill="#000000" font-family="sans-serif" font-size="14" lengthAdjust="spacing" textLength="131" x="693" y="527.6895">return_code m_state</text><text fill="#000000" font-family="sans-serif" font-size="14" lengthAdjust="spacing" textLength="4" x="693" y="545.2988">&#160;</text><rect fill="none" height="6" style="stroke:#C82930;stroke-width:1.0;" width="6" x="681" y="555.6797"/><text fill="#000000" font-family="sans-serif" font-size="14" lengthAdjust="spacing" textLength="143" x="693" y="562.9082">int32_t m_temperature</text><rect fill="none" height="6" style="stroke:#C82930;stroke-width:1.0;" width="6" x="681" y="573.2891"/><text fill="#000000" font-family="sans-serif" font-size="14" lengthAdjust="spacing" textLength="130" x="693" y="580.5176">uint32_t m_pressure</text><line style="stroke:#181818;stroke-width:0.5;" x1="674" x2="1303" y1="587.5938" y2="587.5938"/><ellipse cx="684" cy="601.8984" fill="#84BE84" rx="3" ry="3" style="stroke:#038048;stroke-width:1.0;"/><text fill="#000000" font-family="sans-serif" font-size="14" lengthAdjust="spacing" textLength="605" x="693" y="606.127">EnvSensBMP280Drv(bmp280_config_t *bmp280_config, i2c_master_bus_handle_t bus_handle)</text><text fill="#000000" font-family="sans-serif" font-size="14" lengthAdjust="spacing" textLength="4" x="693" y="623.7363">&#160;</text><ellipse cx="684" cy="637.1172" fill="#84BE84" rx="3" ry="3" style="stroke:#038048;stroke-width:1.0;"/><text fill="#000000" font-family="sans-serif" font-size="14" lengthAdjust="spacing" textLength="109" x="693" y="641.3457">return_code init()</text><text fill="#000000" font-family="sans-serif" font-size="14" lengthAdjust="spacing" textLength="4" x="693" y="658.9551">&#160;</text><ellipse cx="684" cy="672.3359" fill="#84BE84" rx="3" ry="3" style="stroke:#038048;stroke-width:1.0;"/><text fill="#000000" font-family="sans-serif" font-size="14" lengthAdjust="spacing" textLength="284" x="693" y="676.5645">return_code startContinuousMeasurements()</text><ellipse cx="684" cy="689.9453" fill="#84BE84" rx="3" ry="3" style="stroke:#038048;stroke-width:1.0;"/><text fill="#000000" font-family="sans-serif" font-size="14" lengthAdjust="spacing" textLength="244" x="693" y="694.1738">return_code startSingleMeasurement()</text><ellipse cx="684" cy="707.5547" fill="#84BE84" rx="3" ry="3" style="stroke:#038048;stroke-width:1.0;"/><text fill="#000000" font-family="sans-serif" font-size="14" lengthAdjust="spacing" textLength="184" x="693" y="711.7832">return_code stopMeasuring()</text><text fill="#000000" font-family="sans-serif" font-size="14" lengthAdjust="spacing" textLength="4" x="693" y="729.3926">&#160;</text><ellipse cx="684" cy="742.7734" fill="#84BE84" rx="3" ry="3" style="stroke:#038048;stroke-width:1.0;"/><text fill="#000000" font-family="sans-serif" font-size="14" lengthAdjust="spacing" textLength="335" x="693" y="747.002">return_code readTemperature(int32_t &amp;temperature)</text><ellipse cx="684" cy="760.3828" fill="#84BE84" rx="3" ry="3" style="stroke:#038048;stroke-width:1.0;"/><text fill="#000000" font-family="sans-serif" font-size="14" lengthAdjust="spacing" textLength="297" x="693" y="764.6113">return_code readPressure(uint32_t &amp;pressure)</text><text fill="#000000" font-family="sans-serif" font-size="14" lengthAdjust="spacing" textLength="4" x="693" y="782.2207">&#160;</text><ellipse cx="684" cy="795.6016" fill="#84BE84" rx="3" ry="3" style="stroke:#038048;stroke-width:1.0;"/><text fill="#000000" font-family="sans-serif" font-size="14" lengthAdjust="spacing" textLength="230" x="693" y="799.8301">return_code getMeasurementState()</text><ellipse cx="684" cy="813.2109" fill="#84BE84" rx="3" ry="3" style="stroke:#038048;stroke-width:1.0;"/><text fill="#000000" font-family="sans-serif" font-size="14" lengthAdjust="spacing" textLength="90" x="693" y="817.4395">void process()</text><text fill="#000000" font-family="sans-serif" font-size="14" lengthAdjust="spacing" textLength="4" x="693" y="835.0488">&#160;</text><ellipse cx="684" cy="848.4297" fill="#84BE84" rx="3" ry="3" style="stroke:#038048;stroke-width:1.0;"/><text fill="#000000" font-family="sans-serif" font-size="14" lengthAdjust="spacing" textLength="149" x="693" y="852.6582">~EnvSensBMP280Drv()</text></g><!--reverse link IEnvSensDrv to EnvSensBME280Drv--><g id="link_IEnvSensDrv_EnvSensBME280Drv"><path d="M542.3594,308.8025 C528.5994,327.9325 524.67,333.41 510,353.8 " fill="none" id="IEnvSensDrv-backto-EnvSensBME280Drv" style="stroke:#181818;stroke-width:1.0;stroke-dasharray:7.0,7.0;"/><polygon fill="none" points="552.87,294.19,537.4885,305.299,547.2302,312.3061,552.87,294.19" style="stroke:#181818;stroke-width:1.0;"/></g><!--reverse link IEnvSensDrv to EnvSensBMP280Drv--><g id="link_IEnvSensDrv_EnvSensBMP280Drv"><path d="M768.6367,308.8054 C786.3067,333.3854 794.61,344.92 813.57,371.28 " fill="none" id="IEnvSensDrv-backto-EnvSensBMP280Drv" style="stroke:#181818;stroke-width:1.0;stroke-dasharray:7.0,7.0;"/><polygon fill="none" points="758.13,294.19,763.7649,312.3076,773.5085,305.3032,758.13,294.19" style="stroke:#181818;stroke-width:1.0;"/></g><!--SRC=[xPKzRy8m48Rt_0fFLMYBLD6bSrkaTa2AH7VBYG-m53kMVOvK8VZjDKf230aDC9IbRFSPttlt2A4Gp89bG3wdgfo3ik-cZDOHyRy7icQfHSCot103w8oYMS6122Km7aM_9rba1jyAXKAvmjaPCEiCI51eVUrmwLoePGv1sN1LeQjqNpduF0ECVu7KO9XtGYmKFayeaZjidQFX5XzE2YxmEtRx1glQTKPrOi3knWkgTUqQUlyICD1cZWoXJw2o49neKsI-Qwycss3lFc4JHLdEh2MrztKsdRmy-HWHKkVL-dfEPImc6PNC-cEYgRDqnHJFmSyZ0xEJoQ4CCrkpUkSubU0_xkTL2x6iceMUmoIMYvHoXiodjKRTALHEKhjJguuqmaiQBBuAkJRMRAKJQ9PTAtkiMdmymls1uv6SqgqrcgMT1F12wCu7RHYkAu6w7A8hm3aJbbv0jfqzzf6Ht98CtI53TydGVqZ64G397W1z383-1-1Mvvo4vxmI_E1ldom4vDn6Fm00]--></g></svg>