<?xml version="1.0" encoding="us-ascii" standalone="no"?><svg xmlns="http://www.w3.org/2000/svg" xmlns:xlink="http://www.w3.org/1999/xlink" contentStyleType="text/css" height="838px" preserveAspectRatio="none" style="width:647px;height:838px;background:#FFFFFF;" version="1.1" viewBox="0 0 647 838" width="647px" zoomAndPan="magnify"><defs/><g><!--class ILedStripDrv--><g id="elem_ILedStripDrv"><rect codeLine="2" fill="#F1F1F1" height="92.8281" id="ILedStripDrv" rx="2.5" ry="2.5" style="stroke:#181818;stroke-width:0.5;" width="632" x="7.5" y="568"/><ellipse cx="280.25" cy="584" fill="#B4A7E5" rx="11" ry="11" style="stroke:#181818;stroke-width:1.0;"/><path d="M281.2031,580.6406 L281.2031,587.2969 L282.9219,587.2969 Q283.5313,587.2969 283.7969,587.5313 Q284.0625,587.7656 284.0625,588.1563 Q284.0625,588.5313 283.7969,588.7656 Q283.5313,589 282.9219,589 L277.7813,589 Q277.1719,589 276.9063,588.7656 Q276.6406,588.5313 276.6406,588.1406 Q276.6406,587.7656 276.9063,587.5313 Q277.1719,587.2969 277.7813,587.2969 L279.5,587.2969 L279.5,580.6406 L277.7813,580.6406 Q277.1719,580.6406 276.9063,580.4063 Q276.6406,580.1719 276.6406,579.7813 Q276.6406,579.4063 276.9063,579.1719 Q277.1719,578.9375 277.7813,578.9375 L282.9219,578.9375 Q283.5313,578.9375 283.7969,579.1719 Q284.0625,579.4063 284.0625,579.7813 Q284.0625,580.1719 283.7969,580.4063 Q283.5313,580.6406 282.9219,580.6406 L281.2031,580.6406 Z " fill="#000000"/><text fill="#000000" font-family="sans-serif" font-size="14" font-style="italic" lengthAdjust="spacing" textLength="78" x="300.75" y="589.7285">ILedStripDrv</text><line style="stroke:#181818;stroke-width:0.5;" x1="8.5" x2="638.5" y1="600" y2="600"/><ellipse cx="18.5" cy="614.3047" fill="#84BE84" rx="3" ry="3" style="stroke:#038048;stroke-width:1.0;"/><text fill="#000000" font-family="sans-serif" font-size="14" font-style="italic" lengthAdjust="spacing" textLength="606" x="27.5" y="618.5332">void fill_rmt_items(led_color_t *led_strip_buf, rmt_item32_t *rmt_items, uint32_t led_strip_length)</text><text fill="#000000" font-family="sans-serif" font-size="14" lengthAdjust="spacing" textLength="4" x="27.5" y="636.1426">&#160;</text><ellipse cx="18.5" cy="649.5234" fill="#84BE84" rx="3" ry="3" style="stroke:#038048;stroke-width:1.0;"/><text fill="#000000" font-family="sans-serif" font-size="14" font-style="italic" lengthAdjust="spacing" textLength="96" x="27.5" y="653.752">~ILedStripDrv()</text></g><!--class ILedStrip--><g id="elem_ILedStrip"><rect codeLine="10" fill="#F1F1F1" height="145.6563" id="ILedStrip" rx="2.5" ry="2.5" style="stroke:#181818;stroke-width:0.5;" width="519" x="64" y="7"/><ellipse cx="290.75" cy="23" fill="#B4A7E5" rx="11" ry="11" style="stroke:#181818;stroke-width:1.0;"/><path d="M291.7031,19.6406 L291.7031,26.2969 L293.4219,26.2969 Q294.0313,26.2969 294.2969,26.5313 Q294.5625,26.7656 294.5625,27.1563 Q294.5625,27.5313 294.2969,27.7656 Q294.0313,28 293.4219,28 L288.2813,28 Q287.6719,28 287.4063,27.7656 Q287.1406,27.5313 287.1406,27.1406 Q287.1406,26.7656 287.4063,26.5313 Q287.6719,26.2969 288.2813,26.2969 L290,26.2969 L290,19.6406 L288.2813,19.6406 Q287.6719,19.6406 287.4063,19.4063 Q287.1406,19.1719 287.1406,18.7813 Q287.1406,18.4063 287.4063,18.1719 Q287.6719,17.9375 288.2813,17.9375 L293.4219,17.9375 Q294.0313,17.9375 294.2969,18.1719 Q294.5625,18.4063 294.5625,18.7813 Q294.5625,19.1719 294.2969,19.4063 Q294.0313,19.6406 293.4219,19.6406 L291.7031,19.6406 Z " fill="#000000"/><text fill="#000000" font-family="sans-serif" font-size="14" font-style="italic" lengthAdjust="spacing" textLength="57" x="311.25" y="28.7285">ILedStrip</text><line style="stroke:#181818;stroke-width:0.5;" x1="65" x2="582" y1="39" y2="39"/><ellipse cx="75" cy="53.3047" fill="#84BE84" rx="3" ry="3" style="stroke:#038048;stroke-width:1.0;"/><text fill="#000000" font-family="sans-serif" font-size="14" font-style="italic" lengthAdjust="spacing" textLength="59" x="84" y="57.5332">bool init()</text><ellipse cx="75" cy="70.9141" fill="#84BE84" rx="3" ry="3" style="stroke:#038048;stroke-width:1.0;"/><text fill="#000000" font-family="sans-serif" font-size="14" font-style="italic" lengthAdjust="spacing" textLength="493" x="84" y="75.1426">bool set_pixel_rgb(uint32_t pixel_num, uint8_t red, uint8_t green, uint8_t blue)</text><ellipse cx="75" cy="88.5234" fill="#84BE84" rx="3" ry="3" style="stroke:#038048;stroke-width:1.0;"/><text fill="#000000" font-family="sans-serif" font-size="14" font-style="italic" lengthAdjust="spacing" textLength="73" x="84" y="92.752">bool show()</text><ellipse cx="75" cy="106.1328" fill="#84BE84" rx="3" ry="3" style="stroke:#038048;stroke-width:1.0;"/><text fill="#000000" font-family="sans-serif" font-size="14" font-style="italic" lengthAdjust="spacing" textLength="72" x="84" y="110.3613">bool clear()</text><text fill="#000000" font-family="sans-serif" font-size="14" lengthAdjust="spacing" textLength="4" x="84" y="127.9707">&#160;</text><ellipse cx="75" cy="141.3516" fill="#84BE84" rx="3" ry="3" style="stroke:#038048;stroke-width:1.0;"/><text fill="#000000" font-family="sans-serif" font-size="14" font-style="italic" lengthAdjust="spacing" textLength="75" x="84" y="145.5801">~ILedStrip()</text></g><!--class LedStripWS2812BDrv--><g id="elem_LedStripWS2812BDrv"><rect codeLine="20" fill="#F1F1F1" height="110.4375" id="LedStripWS2812BDrv" rx="2.5" ry="2.5" style="stroke:#181818;stroke-width:0.5;" width="633" x="7" y="721"/><ellipse cx="250.25" cy="737" fill="#ADD1B2" rx="11" ry="11" style="stroke:#181818;stroke-width:1.0;"/><path d="M253.0156,732.875 Q253.1719,732.6563 253.3594,732.5469 Q253.5469,732.4375 253.7656,732.4375 Q254.1406,732.4375 254.375,732.7031 Q254.6094,732.9531 254.6094,733.5625 L254.6094,735.0156 Q254.6094,735.625 254.375,735.8906 Q254.1406,736.1563 253.7656,736.1563 Q253.4219,736.1563 253.2188,735.9531 Q253.0156,735.7656 252.9063,735.25 Q252.8594,734.8906 252.6719,734.7031 Q252.3438,734.3281 251.7344,734.1094 Q251.125,733.8906 250.5,733.8906 Q249.7344,733.8906 249.0938,734.2188 Q248.4688,734.5469 247.9688,735.2969 Q247.4844,736.0469 247.4844,737.0781 L247.4844,738.1719 Q247.4844,739.4063 248.375,740.2344 Q249.2656,741.0469 250.8594,741.0469 Q251.7969,741.0469 252.4531,740.7969 Q252.8438,740.6406 253.2656,740.2031 Q253.5313,739.9375 253.6719,739.8594 Q253.8281,739.7813 254.0313,739.7813 Q254.3594,739.7813 254.6094,740.0469 Q254.875,740.2969 254.875,740.6406 Q254.875,740.9844 254.5313,741.3906 Q254.0313,741.9688 253.2344,742.2969 Q252.1563,742.75 250.8594,742.75 Q249.3438,742.75 248.1406,742.125 Q247.1563,741.625 246.4688,740.5625 Q245.7813,739.4844 245.7813,738.2031 L245.7813,737.0469 Q245.7813,735.7188 246.3906,734.5781 Q247.0156,733.4219 248.1094,732.8125 Q249.2031,732.1875 250.4375,732.1875 Q251.1719,732.1875 251.8125,732.3594 Q252.4688,732.5156 253.0156,732.875 Z " fill="#000000"/><text fill="#000000" font-family="sans-serif" font-size="14" lengthAdjust="spacing" textLength="138" x="270.75" y="742.7285">LedStripWS2812BDrv</text><line style="stroke:#181818;stroke-width:0.5;" x1="8" x2="639" y1="753" y2="753"/><ellipse cx="18" cy="767.3047" fill="#84BE84" rx="3" ry="3" style="stroke:#038048;stroke-width:1.0;"/><text fill="#000000" font-family="sans-serif" font-size="14" lengthAdjust="spacing" textLength="148" x="27" y="771.5332">LedStripWS2812BDrv()</text><ellipse cx="18" cy="784.9141" fill="#84BE84" rx="3" ry="3" style="stroke:#038048;stroke-width:1.0;"/><text fill="#000000" font-family="sans-serif" font-size="14" lengthAdjust="spacing" textLength="607" x="27" y="789.1426">void fill_rmt_items(led_color_t *led_strip_buf, rmt_item32_t *rmt_items, uint32_t led_strip_length)</text><text fill="#000000" font-family="sans-serif" font-size="14" lengthAdjust="spacing" textLength="4" x="27" y="806.752">&#160;</text><ellipse cx="18" cy="820.1328" fill="#84BE84" rx="3" ry="3" style="stroke:#038048;stroke-width:1.0;"/><text fill="#000000" font-family="sans-serif" font-size="14" lengthAdjust="spacing" textLength="156" x="27" y="824.3613">~LedStripWS2812BDrv()</text></g><!--class LedStrip--><g id="elem_LedStrip"><rect codeLine="28" fill="#F1F1F1" height="294.5313" id="LedStrip" rx="2.5" ry="2.5" style="stroke:#181818;stroke-width:0.5;" width="519" x="64" y="213"/><ellipse cx="292.75" cy="229" fill="#ADD1B2" rx="11" ry="11" style="stroke:#181818;stroke-width:1.0;"/><path d="M295.5156,224.875 Q295.6719,224.6563 295.8594,224.5469 Q296.0469,224.4375 296.2656,224.4375 Q296.6406,224.4375 296.875,224.7031 Q297.1094,224.9531 297.1094,225.5625 L297.1094,227.0156 Q297.1094,227.625 296.875,227.8906 Q296.6406,228.1563 296.2656,228.1563 Q295.9219,228.1563 295.7188,227.9531 Q295.5156,227.7656 295.4063,227.25 Q295.3594,226.8906 295.1719,226.7031 Q294.8438,226.3281 294.2344,226.1094 Q293.625,225.8906 293,225.8906 Q292.2344,225.8906 291.5938,226.2188 Q290.9688,226.5469 290.4688,227.2969 Q289.9844,228.0469 289.9844,229.0781 L289.9844,230.1719 Q289.9844,231.4063 290.875,232.2344 Q291.7656,233.0469 293.3594,233.0469 Q294.2969,233.0469 294.9531,232.7969 Q295.3438,232.6406 295.7656,232.2031 Q296.0313,231.9375 296.1719,231.8594 Q296.3281,231.7813 296.5313,231.7813 Q296.8594,231.7813 297.1094,232.0469 Q297.375,232.2969 297.375,232.6406 Q297.375,232.9844 297.0313,233.3906 Q296.5313,233.9688 295.7344,234.2969 Q294.6563,234.75 293.3594,234.75 Q291.8438,234.75 290.6406,234.125 Q289.6563,233.625 288.9688,232.5625 Q288.2813,231.4844 288.2813,230.2031 L288.2813,229.0469 Q288.2813,227.7188 288.8906,226.5781 Q289.5156,225.4219 290.6094,224.8125 Q291.7031,224.1875 292.9375,224.1875 Q293.6719,224.1875 294.3125,224.3594 Q294.9688,224.5156 295.5156,224.875 Z " fill="#000000"/><text fill="#000000" font-family="sans-serif" font-size="14" lengthAdjust="spacing" textLength="53" x="313.25" y="234.7285">LedStrip</text><line style="stroke:#181818;stroke-width:0.5;" x1="65" x2="582" y1="245" y2="245"/><rect fill="none" height="6" style="stroke:#C82930;stroke-width:1.0;" width="6" x="72" y="256.3047"/><text fill="#000000" font-family="sans-serif" font-size="14" lengthAdjust="spacing" textLength="198" x="84" y="263.5332">struct led_strip_t ledStripConfig</text><rect fill="none" height="6" style="stroke:#C82930;stroke-width:1.0;" width="6" x="72" y="273.9141"/><text fill="#000000" font-family="sans-serif" font-size="14" lengthAdjust="spacing" textLength="127" x="84" y="281.1426">bool m_led_strip_ok</text><rect fill="none" height="6" style="stroke:#C82930;stroke-width:1.0;" width="6" x="72" y="291.5234"/><text fill="#000000" font-family="sans-serif" font-size="14" lengthAdjust="spacing" textLength="177" x="84" y="298.752">ILedStripDrv&amp; ledStripDriver</text><line style="stroke:#181818;stroke-width:0.5;" x1="65" x2="582" y1="305.8281" y2="305.8281"/><ellipse cx="75" cy="320.1328" fill="#84BE84" rx="3" ry="3" style="stroke:#038048;stroke-width:1.0;"/><text fill="#000000" font-family="sans-serif" font-size="14" lengthAdjust="spacing" textLength="350" x="84" y="324.3613">LedStrip(ILedStripDrv&amp; driver, struct led_strip_t *config)</text><text fill="#000000" font-family="sans-serif" font-size="14" lengthAdjust="spacing" textLength="4" x="84" y="341.9707">&#160;</text><ellipse cx="75" cy="355.3516" fill="#84BE84" rx="3" ry="3" style="stroke:#038048;stroke-width:1.0;"/><text fill="#000000" font-family="sans-serif" font-size="14" lengthAdjust="spacing" textLength="59" x="84" y="359.5801">bool init()</text><ellipse cx="75" cy="372.9609" fill="#84BE84" rx="3" ry="3" style="stroke:#038048;stroke-width:1.0;"/><text fill="#000000" font-family="sans-serif" font-size="14" lengthAdjust="spacing" textLength="493" x="84" y="377.1895">bool set_pixel_rgb(uint32_t pixel_num, uint8_t red, uint8_t green, uint8_t blue)</text><ellipse cx="75" cy="390.5703" fill="#84BE84" rx="3" ry="3" style="stroke:#038048;stroke-width:1.0;"/><text fill="#000000" font-family="sans-serif" font-size="14" lengthAdjust="spacing" textLength="73" x="84" y="394.7988">bool show()</text><ellipse cx="75" cy="408.1797" fill="#84BE84" rx="3" ry="3" style="stroke:#038048;stroke-width:1.0;"/><text fill="#000000" font-family="sans-serif" font-size="14" lengthAdjust="spacing" textLength="72" x="84" y="412.4082">bool clear()</text><text fill="#000000" font-family="sans-serif" font-size="14" lengthAdjust="spacing" textLength="4" x="84" y="430.0176">&#160;</text><ellipse cx="75" cy="443.3984" fill="#84BE84" rx="3" ry="3" style="stroke:#038048;stroke-width:1.0;"/><text fill="#000000" font-family="sans-serif" font-size="14" lengthAdjust="spacing" textLength="134" x="84" y="447.627">led_strip_t* getStrip()</text><ellipse cx="75" cy="461.0078" fill="#84BE84" rx="3" ry="3" style="stroke:#038048;stroke-width:1.0;"/><text fill="#000000" font-family="sans-serif" font-size="14" lengthAdjust="spacing" textLength="274" x="84" y="465.2363">void fill_rmt_items(rmt_item32_t *rmt_items)</text><text fill="#000000" font-family="sans-serif" font-size="14" lengthAdjust="spacing" textLength="4" x="84" y="482.8457">&#160;</text><ellipse cx="75" cy="496.2266" fill="#84BE84" rx="3" ry="3" style="stroke:#038048;stroke-width:1.0;"/><text fill="#000000" font-family="sans-serif" font-size="14" lengthAdjust="spacing" textLength="71" x="84" y="500.4551">~LedStrip()</text></g><!--reverse link ILedStripDrv to LedStripWS2812BDrv--><g id="link_ILedStripDrv_LedStripWS2812BDrv"><path d="M323.5,679.21 C323.5,697.8 323.5,701.44 323.5,720.82 " fill="none" id="ILedStripDrv-backto-LedStripWS2812BDrv" style="stroke:#181818;stroke-width:1.0;stroke-dasharray:7.0,7.0;"/><polygon fill="none" points="323.5,661.21,317.5,679.21,329.5,679.21,323.5,661.21" style="stroke:#181818;stroke-width:1.0;"/></g><!--reverse link ILedStrip to LedStrip--><g id="link_ILedStrip_LedStrip"><path d="M323.5,171.08 C323.5,189.54 323.5,192.06 323.5,212.8 " fill="none" id="ILedStrip-backto-LedStrip" style="stroke:#181818;stroke-width:1.0;stroke-dasharray:7.0,7.0;"/><polygon fill="none" points="323.5,153.08,317.5,171.08,329.5,171.08,323.5,153.08" style="stroke:#181818;stroke-width:1.0;"/></g><!--link LedStrip to ILedStripDrv--><g id="link_LedStrip_ILedStripDrv"><path codeLine="51" d="M323.5,508.09 C323.5,529.74 323.5,544.57 323.5,561.9 " fill="none" id="LedStrip-to-ILedStripDrv" style="stroke:#181818;stroke-width:1.0;"/><polygon fill="#181818" points="323.5,567.9,327.5,558.9,323.5,562.9,319.5,558.9,323.5,567.9" style="stroke:#181818;stroke-width:1.0;"/></g><!--SRC=[lLGzJyCm4DtzApoXqBG3PUd405sGs3emMebzIKyuTcGx1QbgVpjkqdmr3XlDPD-zyxrtznHK3aoMSA3l7o1spc2vDGTo9DH_noIrpYJSdMXyq2XeXb8oKpY63WeRIH2CQwaDStHnkTXBFKkhR4bRrFFwakngbhH2vUfWNo11vMx_I2PDpqDIaGUS2C4fum3TL6j9KQ7pLS6S1STA_06l9q-ZZbGJKbNH4Dtua07HNt83eFfhAYkOQx3NttFDkOJ4H7yAzbalbil4Mjh6FdVhpTFwrS-2Ob5AA40v6rfSFAsuKhdV7kDpaCH4L53ALSVAlrlnOOlwN4FUjCemRs3rK0lMm_HNanZEvg4htHeyW27ZKKLZhAWnInfWiE1rwrRdhTN-nryJKmMS50zOBcWEhdNIxEPdjZjPOREuFOhnVy8_1rBOcyGe6l3kDKqw_6hrCdRnBm00]--></g></svg>