<?xml version="1.0" encoding="us-ascii" standalone="no"?><svg xmlns="http://www.w3.org/2000/svg" xmlns:xlink="http://www.w3.org/1999/xlink" contentStyleType="text/css" height="514px" preserveAspectRatio="none" style="width:1201px;height:514px;background:#FFFFFF;" version="1.1" viewBox="0 0 1201 514" width="1201px" zoomAndPan="magnify"><defs/><g><!--class ILedStripDrv--><g id="elem_ILedStripDrv"><rect codeLine="2" fill="#F1F1F1" height="92.8281" id="ILedStripDrv" rx="2.5" ry="2.5" style="stroke:#181818;stroke-width:0.5;" width="632" x="7.5" y="33.5"/><ellipse cx="280.25" cy="49.5" fill="#B4A7E5" rx="11" ry="11" style="stroke:#181818;stroke-width:1.0;"/><path d="M281.2031,46.1406 L281.2031,52.7969 L282.9219,52.7969 Q283.5313,52.7969 283.7969,53.0313 Q284.0625,53.2656 284.0625,53.6563 Q284.0625,54.0313 283.7969,54.2656 Q283.5313,54.5 282.9219,54.5 L277.7813,54.5 Q277.1719,54.5 276.9063,54.2656 Q276.6406,54.0313 276.6406,53.6406 Q276.6406,53.2656 276.9063,53.0313 Q277.1719,52.7969 277.7813,52.7969 L279.5,52.7969 L279.5,46.1406 L277.7813,46.1406 Q277.1719,46.1406 276.9063,45.9063 Q276.6406,45.6719 276.6406,45.2813 Q276.6406,44.9063 276.9063,44.6719 Q277.1719,44.4375 277.7813,44.4375 L282.9219,44.4375 Q283.5313,44.4375 283.7969,44.6719 Q284.0625,44.9063 284.0625,45.2813 Q284.0625,45.6719 283.7969,45.9063 Q283.5313,46.1406 282.9219,46.1406 L281.2031,46.1406 Z " fill="#000000"/><text fill="#000000" font-family="sans-serif" font-size="14" font-style="italic" lengthAdjust="spacing" textLength="78" x="300.75" y="55.2285">ILedStripDrv</text><line style="stroke:#181818;stroke-width:0.5;" x1="8.5" x2="638.5" y1="65.5" y2="65.5"/><ellipse cx="18.5" cy="79.8047" fill="#84BE84" rx="3" ry="3" style="stroke:#038048;stroke-width:1.0;"/><text fill="#000000" font-family="sans-serif" font-size="14" font-style="italic" lengthAdjust="spacing" textLength="606" x="27.5" y="84.0332">void fill_rmt_items(led_color_t *led_strip_buf, rmt_item32_t *rmt_items, uint32_t led_strip_length)</text><text fill="#000000" font-family="sans-serif" font-size="14" lengthAdjust="spacing" textLength="4" x="27.5" y="101.6426">&#160;</text><ellipse cx="18.5" cy="115.0234" fill="#84BE84" rx="3" ry="3" style="stroke:#038048;stroke-width:1.0;"/><text fill="#000000" font-family="sans-serif" font-size="14" font-style="italic" lengthAdjust="spacing" textLength="96" x="27.5" y="119.252">~ILedStripDrv()</text></g><!--class ILedStrip--><g id="elem_ILedStrip"><rect codeLine="10" fill="#F1F1F1" height="145.6563" id="ILedStrip" rx="2.5" ry="2.5" style="stroke:#181818;stroke-width:0.5;" width="519" x="675" y="7"/><ellipse cx="901.75" cy="23" fill="#B4A7E5" rx="11" ry="11" style="stroke:#181818;stroke-width:1.0;"/><path d="M902.7031,19.6406 L902.7031,26.2969 L904.4219,26.2969 Q905.0313,26.2969 905.2969,26.5313 Q905.5625,26.7656 905.5625,27.1563 Q905.5625,27.5313 905.2969,27.7656 Q905.0313,28 904.4219,28 L899.2813,28 Q898.6719,28 898.4063,27.7656 Q898.1406,27.5313 898.1406,27.1406 Q898.1406,26.7656 898.4063,26.5313 Q898.6719,26.2969 899.2813,26.2969 L901,26.2969 L901,19.6406 L899.2813,19.6406 Q898.6719,19.6406 898.4063,19.4063 Q898.1406,19.1719 898.1406,18.7813 Q898.1406,18.4063 898.4063,18.1719 Q898.6719,17.9375 899.2813,17.9375 L904.4219,17.9375 Q905.0313,17.9375 905.2969,18.1719 Q905.5625,18.4063 905.5625,18.7813 Q905.5625,19.1719 905.2969,19.4063 Q905.0313,19.6406 904.4219,19.6406 L902.7031,19.6406 Z " fill="#000000"/><text fill="#000000" font-family="sans-serif" font-size="14" font-style="italic" lengthAdjust="spacing" textLength="57" x="922.25" y="28.7285">ILedStrip</text><line style="stroke:#181818;stroke-width:0.5;" x1="676" x2="1193" y1="39" y2="39"/><ellipse cx="686" cy="53.3047" fill="#84BE84" rx="3" ry="3" style="stroke:#038048;stroke-width:1.0;"/><text fill="#000000" font-family="sans-serif" font-size="14" font-style="italic" lengthAdjust="spacing" textLength="59" x="695" y="57.5332">bool init()</text><ellipse cx="686" cy="70.9141" fill="#84BE84" rx="3" ry="3" style="stroke:#038048;stroke-width:1.0;"/><text fill="#000000" font-family="sans-serif" font-size="14" font-style="italic" lengthAdjust="spacing" textLength="493" x="695" y="75.1426">bool set_pixel_rgb(uint32_t pixel_num, uint8_t red, uint8_t green, uint8_t blue)</text><ellipse cx="686" cy="88.5234" fill="#84BE84" rx="3" ry="3" style="stroke:#038048;stroke-width:1.0;"/><text fill="#000000" font-family="sans-serif" font-size="14" font-style="italic" lengthAdjust="spacing" textLength="73" x="695" y="92.752">bool show()</text><ellipse cx="686" cy="106.1328" fill="#84BE84" rx="3" ry="3" style="stroke:#038048;stroke-width:1.0;"/><text fill="#000000" font-family="sans-serif" font-size="14" font-style="italic" lengthAdjust="spacing" textLength="72" x="695" y="110.3613">bool clear()</text><text fill="#000000" font-family="sans-serif" font-size="14" lengthAdjust="spacing" textLength="4" x="695" y="127.9707">&#160;</text><ellipse cx="686" cy="141.3516" fill="#84BE84" rx="3" ry="3" style="stroke:#038048;stroke-width:1.0;"/><text fill="#000000" font-family="sans-serif" font-size="14" font-style="italic" lengthAdjust="spacing" textLength="75" x="695" y="145.5801">~ILedStrip()</text></g><!--class LedStripWS2812BDrv--><g id="elem_LedStripWS2812BDrv"><rect codeLine="20" fill="#F1F1F1" height="110.4375" id="LedStripWS2812BDrv" rx="2.5" ry="2.5" style="stroke:#181818;stroke-width:0.5;" width="633" x="7" y="305.5"/><ellipse cx="250.25" cy="321.5" fill="#ADD1B2" rx="11" ry="11" style="stroke:#181818;stroke-width:1.0;"/><path d="M253.0156,317.375 Q253.1719,317.1563 253.3594,317.0469 Q253.5469,316.9375 253.7656,316.9375 Q254.1406,316.9375 254.375,317.2031 Q254.6094,317.4531 254.6094,318.0625 L254.6094,319.5156 Q254.6094,320.125 254.375,320.3906 Q254.1406,320.6563 253.7656,320.6563 Q253.4219,320.6563 253.2188,320.4531 Q253.0156,320.2656 252.9063,319.75 Q252.8594,319.3906 252.6719,319.2031 Q252.3438,318.8281 251.7344,318.6094 Q251.125,318.3906 250.5,318.3906 Q249.7344,318.3906 249.0938,318.7188 Q248.4688,319.0469 247.9688,319.7969 Q247.4844,320.5469 247.4844,321.5781 L247.4844,322.6719 Q247.4844,323.9063 248.375,324.7344 Q249.2656,325.5469 250.8594,325.5469 Q251.7969,325.5469 252.4531,325.2969 Q252.8438,325.1406 253.2656,324.7031 Q253.5313,324.4375 253.6719,324.3594 Q253.8281,324.2813 254.0313,324.2813 Q254.3594,324.2813 254.6094,324.5469 Q254.875,324.7969 254.875,325.1406 Q254.875,325.4844 254.5313,325.8906 Q254.0313,326.4688 253.2344,326.7969 Q252.1563,327.25 250.8594,327.25 Q249.3438,327.25 248.1406,326.625 Q247.1563,326.125 246.4688,325.0625 Q245.7813,323.9844 245.7813,322.7031 L245.7813,321.5469 Q245.7813,320.2188 246.3906,319.0781 Q247.0156,317.9219 248.1094,317.3125 Q249.2031,316.6875 250.4375,316.6875 Q251.1719,316.6875 251.8125,316.8594 Q252.4688,317.0156 253.0156,317.375 Z " fill="#000000"/><text fill="#000000" font-family="sans-serif" font-size="14" lengthAdjust="spacing" textLength="138" x="270.75" y="327.2285">LedStripWS2812BDrv</text><line style="stroke:#181818;stroke-width:0.5;" x1="8" x2="639" y1="337.5" y2="337.5"/><ellipse cx="18" cy="351.8047" fill="#84BE84" rx="3" ry="3" style="stroke:#038048;stroke-width:1.0;"/><text fill="#000000" font-family="sans-serif" font-size="14" lengthAdjust="spacing" textLength="148" x="27" y="356.0332">LedStripWS2812BDrv()</text><ellipse cx="18" cy="369.4141" fill="#84BE84" rx="3" ry="3" style="stroke:#038048;stroke-width:1.0;"/><text fill="#000000" font-family="sans-serif" font-size="14" lengthAdjust="spacing" textLength="607" x="27" y="373.6426">void fill_rmt_items(led_color_t *led_strip_buf, rmt_item32_t *rmt_items, uint32_t led_strip_length)</text><text fill="#000000" font-family="sans-serif" font-size="14" lengthAdjust="spacing" textLength="4" x="27" y="391.252">&#160;</text><ellipse cx="18" cy="404.6328" fill="#84BE84" rx="3" ry="3" style="stroke:#038048;stroke-width:1.0;"/><text fill="#000000" font-family="sans-serif" font-size="14" lengthAdjust="spacing" textLength="156" x="27" y="408.8613">~LedStripWS2812BDrv()</text></g><!--class LedStrip--><g id="elem_LedStrip"><rect codeLine="28" fill="#F1F1F1" height="294.5313" id="LedStrip" rx="2.5" ry="2.5" style="stroke:#181818;stroke-width:0.5;" width="519" x="675" y="213"/><ellipse cx="903.75" cy="229" fill="#ADD1B2" rx="11" ry="11" style="stroke:#181818;stroke-width:1.0;"/><path d="M906.5156,224.875 Q906.6719,224.6563 906.8594,224.5469 Q907.0469,224.4375 907.2656,224.4375 Q907.6406,224.4375 907.875,224.7031 Q908.1094,224.9531 908.1094,225.5625 L908.1094,227.0156 Q908.1094,227.625 907.875,227.8906 Q907.6406,228.1563 907.2656,228.1563 Q906.9219,228.1563 906.7188,227.9531 Q906.5156,227.7656 906.4063,227.25 Q906.3594,226.8906 906.1719,226.7031 Q905.8438,226.3281 905.2344,226.1094 Q904.625,225.8906 904,225.8906 Q903.2344,225.8906 902.5938,226.2188 Q901.9688,226.5469 901.4688,227.2969 Q900.9844,228.0469 900.9844,229.0781 L900.9844,230.1719 Q900.9844,231.4063 901.875,232.2344 Q902.7656,233.0469 904.3594,233.0469 Q905.2969,233.0469 905.9531,232.7969 Q906.3438,232.6406 906.7656,232.2031 Q907.0313,231.9375 907.1719,231.8594 Q907.3281,231.7813 907.5313,231.7813 Q907.8594,231.7813 908.1094,232.0469 Q908.375,232.2969 908.375,232.6406 Q908.375,232.9844 908.0313,233.3906 Q907.5313,233.9688 906.7344,234.2969 Q905.6563,234.75 904.3594,234.75 Q902.8438,234.75 901.6406,234.125 Q900.6563,233.625 899.9688,232.5625 Q899.2813,231.4844 899.2813,230.2031 L899.2813,229.0469 Q899.2813,227.7188 899.8906,226.5781 Q900.5156,225.4219 901.6094,224.8125 Q902.7031,224.1875 903.9375,224.1875 Q904.6719,224.1875 905.3125,224.3594 Q905.9688,224.5156 906.5156,224.875 Z " fill="#000000"/><text fill="#000000" font-family="sans-serif" font-size="14" lengthAdjust="spacing" textLength="53" x="924.25" y="234.7285">LedStrip</text><line style="stroke:#181818;stroke-width:0.5;" x1="676" x2="1193" y1="245" y2="245"/><rect fill="none" height="6" style="stroke:#C82930;stroke-width:1.0;" width="6" x="683" y="256.3047"/><text fill="#000000" font-family="sans-serif" font-size="14" lengthAdjust="spacing" textLength="198" x="695" y="263.5332">struct led_strip_t ledStripConfig</text><rect fill="none" height="6" style="stroke:#C82930;stroke-width:1.0;" width="6" x="683" y="273.9141"/><text fill="#000000" font-family="sans-serif" font-size="14" lengthAdjust="spacing" textLength="127" x="695" y="281.1426">bool m_led_strip_ok</text><rect fill="none" height="6" style="stroke:#C82930;stroke-width:1.0;" width="6" x="683" y="291.5234"/><text fill="#000000" font-family="sans-serif" font-size="14" lengthAdjust="spacing" textLength="177" x="695" y="298.752">ILedStripDrv&amp; ledStripDriver</text><line style="stroke:#181818;stroke-width:0.5;" x1="676" x2="1193" y1="305.8281" y2="305.8281"/><ellipse cx="686" cy="320.1328" fill="#84BE84" rx="3" ry="3" style="stroke:#038048;stroke-width:1.0;"/><text fill="#000000" font-family="sans-serif" font-size="14" lengthAdjust="spacing" textLength="350" x="695" y="324.3613">LedStrip(ILedStripDrv&amp; driver, struct led_strip_t *config)</text><text fill="#000000" font-family="sans-serif" font-size="14" lengthAdjust="spacing" textLength="4" x="695" y="341.9707">&#160;</text><ellipse cx="686" cy="355.3516" fill="#84BE84" rx="3" ry="3" style="stroke:#038048;stroke-width:1.0;"/><text fill="#000000" font-family="sans-serif" font-size="14" lengthAdjust="spacing" textLength="59" x="695" y="359.5801">bool init()</text><ellipse cx="686" cy="372.9609" fill="#84BE84" rx="3" ry="3" style="stroke:#038048;stroke-width:1.0;"/><text fill="#000000" font-family="sans-serif" font-size="14" lengthAdjust="spacing" textLength="493" x="695" y="377.1895">bool set_pixel_rgb(uint32_t pixel_num, uint8_t red, uint8_t green, uint8_t blue)</text><ellipse cx="686" cy="390.5703" fill="#84BE84" rx="3" ry="3" style="stroke:#038048;stroke-width:1.0;"/><text fill="#000000" font-family="sans-serif" font-size="14" lengthAdjust="spacing" textLength="73" x="695" y="394.7988">bool show()</text><ellipse cx="686" cy="408.1797" fill="#84BE84" rx="3" ry="3" style="stroke:#038048;stroke-width:1.0;"/><text fill="#000000" font-family="sans-serif" font-size="14" lengthAdjust="spacing" textLength="72" x="695" y="412.4082">bool clear()</text><text fill="#000000" font-family="sans-serif" font-size="14" lengthAdjust="spacing" textLength="4" x="695" y="430.0176">&#160;</text><ellipse cx="686" cy="443.3984" fill="#84BE84" rx="3" ry="3" style="stroke:#038048;stroke-width:1.0;"/><text fill="#000000" font-family="sans-serif" font-size="14" lengthAdjust="spacing" textLength="134" x="695" y="447.627">led_strip_t* getStrip()</text><ellipse cx="686" cy="461.0078" fill="#84BE84" rx="3" ry="3" style="stroke:#038048;stroke-width:1.0;"/><text fill="#000000" font-family="sans-serif" font-size="14" lengthAdjust="spacing" textLength="274" x="695" y="465.2363">void fill_rmt_items(rmt_item32_t *rmt_items)</text><text fill="#000000" font-family="sans-serif" font-size="14" lengthAdjust="spacing" textLength="4" x="695" y="482.8457">&#160;</text><ellipse cx="686" cy="496.2266" fill="#84BE84" rx="3" ry="3" style="stroke:#038048;stroke-width:1.0;"/><text fill="#000000" font-family="sans-serif" font-size="14" lengthAdjust="spacing" textLength="71" x="695" y="500.4551">~LedStrip()</text></g><!--reverse link ILedStripDrv to LedStripWS2812BDrv--><g id="link_ILedStripDrv_LedStripWS2812BDrv"><path d="M323.5,144.68 C323.5,193.59 323.5,253.19 323.5,305.2 " fill="none" id="ILedStripDrv-backto-LedStripWS2812BDrv" style="stroke:#181818;stroke-width:1.0;stroke-dasharray:7.0,7.0;"/><polygon fill="none" points="323.5,126.68,317.5,144.68,329.5,144.68,323.5,126.68" style="stroke:#181818;stroke-width:1.0;"/></g><!--reverse link ILedStrip to LedStrip--><g id="link_ILedStrip_LedStrip"><path d="M934.5,171.08 C934.5,189.54 934.5,192.06 934.5,212.8 " fill="none" id="ILedStrip-backto-LedStrip" style="stroke:#181818;stroke-width:1.0;stroke-dasharray:7.0,7.0;"/><polygon fill="none" points="934.5,153.08,928.5,171.08,940.5,171.08,934.5,153.08" style="stroke:#181818;stroke-width:1.0;"/></g><!--SRC=[lLInReCm4Dtv2ayL3NHekcHkirJgbg6Z1VP1JZLsP1zffIZvzZeG0WJJhM6oxzxvthjx0ZM1BJ81xFq3v8OixjPs7nqYvhz3bZkocQ0ZI_O69IjGAMuhuaXGkLY1vC8eOpcnnVdYplKyhukKTQYNvJbvhKbPZPgQO5-WG9UqVOmcJKz3Kh477AC8fum3T7DZ54EDvAk2EGV4T_W3Na-PnrTIRKZNLKjqvKCMP7yfBO3khxcgOQx1rdpFDHSACXl_ATXdlLYXCkTO5_lSB5VForS_2uRLJa45cbneSScquaBbVdjCJa4I4r51AHSTJ_xTMWnRDES6ycPqWMKBQuPQyHvcljh4S3OFrzArnJtOQ3ogU8oL3IPb0GOBqRJkTDvQxN_yDJ5Lm4d9WEM2bK2TasOtFxFToGhRnMrHZlyJ_ZbGqjqaHj60To_fNm00]--></g></svg>